#!OML:ASF E:\emotionWalksFemale\Project 1\Capture day 1\Session 1\Female1.ASF
:FULLY-SPECIFIED
:DEGREES
484
root 7.52448 14.931 39.96 177.968 -0.342179 -180.283
lowerback 9.73546 1.47504 -0.9952
upperback 2.16335 1.69739 0.342983
thorax -3.24776 0.776006 0.709289
lowerneck -5.48451 -2.47564 -5.2537
upperneck -2.73714 -3.13977 3.59042
head 0.222202 -1.57458 1.95878
rclavicle -2.70844e-015 -2.88238e-015
rhumerus -36.4122 4.48127 -87.1422
rradius 34.6829
rwrist 16.6521
rhand -10.5152 -60.4061
rfingers 7.12502
rthumb 15.4875 -809.806
lclavicle -2.70844e-015 -2.88238e-015
lhumerus -36.1402 0.873353 85.8921
lradius 37.6238
lwrist -14.5485
lhand -6.12627 -36.9825
lfingers 7.12502
lthumb 19.711 -7.9619
rfemur -25.5531 17.6423 18.2643
rtibia 27.8709
rfoot -11.7961 -22.1922
rtoes -11.0108
lfemur 2.38415 -9.38769 -30.3062
ltibia 26.4268
lfoot -28.1005 8.99951
ltoes -15.9261
485
root 7.53743 14.9295 39.9286 178.104 -0.60431 -180.391
lowerback 9.78036 1.47804 -1.00867
upperback 2.20858 1.69156 0.236404
thorax -3.22271 0.77093 0.606908
lowerneck -5.85055 -2.56732 -5.07669
upperneck -2.67843 -3.26313 3.59377
head 0.304945 -1.63857 1.92066
rclavicle 1.70831e-014 -1.68967e-015
rhumerus -36.1991 4.30216 -87.0941
rradius 34.6399
rwrist 16.682
rhand -10.3449 -60.0416
rfingers 7.12502
rthumb 15.6515 -809.429
lclavicle 1.70831e-014 -1.68967e-015
lhumerus -35.8575 0.702686 85.7646
lradius 37.608
lwrist -13.9844
lhand -5.08194 -36.8539
lfingers 7.12502
lthumb 20.7147 -7.93948
rfemur -25.7289 17.4303 18.162
rtibia 28.1729
rfoot -10.8778 -22.0453
rtoes -10.6083
lfemur 2.2763 -9.44482 -30.3399
ltibia 26.5071
lfoot -28.0165 9.02108
ltoes -16.8239
486
root 7.55258 14.9231 39.8903 178.064 -0.706626 -180.4
lowerback 9.84891 1.43492 -1.05232
upperback 2.28755 1.62338 0.284629
thorax -3.18006 0.7337 0.689564
lowerneck -5.83932 -2.57536 -5.23894
upperneck -2.89558 -3.27218 3.66152
head 0.239647 -1.64497 1.97297
rclavicle -1.39398e-014 0
rhumerus -36.1288 4.26746 -86.8909
rradius 34.7962
rwrist 17.2515
rhand -8.97102 -60.7609
rfingers 7.12502
rthumb 16.9743 -629.961
lclavicle -1.39398e-014 0
lhumerus -35.716 0.953694 85.8082
lradius 37.1915
lwrist -14.906
lhand -6.68402 -37.1152
lfingers 7.12502
lthumb 19.1747 -8.04045
rfemur -25.7271 17.3225 18.2625
rtibia 28.547
rfoot -12.4812 -22.1724
rtoes -8.4282
lfemur 2.45284 -9.27852 -30.274
ltibia 26.4842
lfoot -27.956 9.05127
ltoes -18.0917
487
root 7.55784 14.9188 39.8577 178.319 -0.611033 -180.292
lowerback 9.76909 1.42844 -0.863465
upperback 2.20342 1.6455 0.355464
thorax -3.22027 0.747541 0.654517
lowerneck -5.69584 -2.56286 -5.44237
upperneck -3.1122 -3.25437 3.71354
head 0.151235 -1.63677 2.03003
rclavicle -1.20016e-014 -2.5842e-015
rhumerus -36.2148 4.46092 -86.8217
rradius 35.1697
rwrist 17.2393
rhand -8.45608 -60.2999
rfingers 7.12502
rthumb 17.47 -809.535
lclavicle -1.20016e-014 -2.5842e-015
lhumerus -35.714 1.16143 85.8868
lradius 37.0339
lwrist -15.1549
lhand -7.24829 -37.1668
lfingers 7.12502
lthumb 18.632 -8.03907
rfemur -26.1651 16.857 18.4134
rtibia 28.9313
rfoot -12.3408 -21.4738
rtoes -7.24864
lfemur 2.30578 -9.38257 -30.1651
ltibia 26.451
lfoot -27.9656 9.3462
ltoes -18.848
488
root 7.57255 14.9116 39.8219 178.301 -0.5592 -180.419
lowerback 9.94259 1.49689 -1.01461
upperback 2.21297 1.7152 0.347755
thorax -3.31195 0.7818 0.719057
lowerneck -5.63878 -2.59129 -5.46871
upperneck -3.29116 -3.29887 3.7126
head 0.0877418 -1.6614 2.03528
rclavicle -1.73937e-016 2.78299e-015
rhumerus -36.1385 4.10568 -86.6783
rradius 35.2948
rwrist 17.0293
rhand -8.81328 -58.5344
rfingers 7.12502
rthumb 17.1262 -807.8
lclavicle -1.73937e-016 2.78299e-015
lhumerus -35.8253 0.944304 85.9604
lradius 37.2527
lwrist -14.8355
lhand -7.27494 -37.2818
lfingers 7.12502
lthumb 18.6064 -8.15168
rfemur -26.2249 16.5419 18.4013
rtibia 29.2642
rfoot -11.1052 -20.82
rtoes -5.06865
lfemur 2.53269 -9.22067 -30.2589
ltibia 26.3439
lfoot -27.9676 9.29787
ltoes -20.3357
489
root 7.58224 14.9189 39.7805 178.163 -0.945951 -180.528
lowerback 10.1788 1.37776 -1.02417
upperback 2.25367 1.54494 0.317138
thorax -3.3961 0.694258 0.710276
lowerneck -5.67769 -2.60481 -5.50381
upperneck -3.30254 -3.31391 3.78522
head 0.0936973 -1.66871 2.06466
rclavicle 9.52924e-015 -8.94531e-016
rhumerus -35.9396 3.76468 -86.5909
rradius 35.1836
rwrist 17.2151
rhand -8.72525 -57.9462
rfingers 7.12502
rthumb 17.2109 -807.204
lclavicle 9.52924e-015 -8.94531e-016
lhumerus -35.8338 0.901183 85.9401
lradius 37.3855
lwrist -14.4484
lhand -6.44583 -37.0505
lfingers 7.12502
lthumb 19.4037 -7.99862
rfemur -25.9525 16.1901 18.3899
rtibia 29.5055
rfoot -11.0008 -20.9787
rtoes -5.3275
lfemur 2.97061 -9.73758 -30.4712
ltibia 26.2242
lfoot -27.9511 9.46107
ltoes -18.4055
